<?xml version="1.0" encoding="UTF-8"?>
<svg width="1024" height="1024" viewBox="0 0 1024 1024" fill="none" xmlns="http://www.w3.org/2000/svg">
  <!-- Background -->
  <rect width="1024" height="1024" rx="180" fill="url(#gradient)"/>
  
  <!-- Inventory Boxes -->
  <g transform="translate(200, 250)">
    <!-- Box 1 -->
    <rect x="0" y="0" width="180" height="180" rx="20" fill="white" opacity="0.9"/>
    <rect x="20" y="20" width="140" height="140" rx="10" fill="#5C6AC4" opacity="0.3"/>
    
    <!-- Box 2 -->
    <rect x="220" y="0" width="180" height="180" rx="20" fill="white" opacity="0.9"/>
    <rect x="240" y="20" width="140" height="140" rx="10" fill="#5C6AC4" opacity="0.5"/>
    
    <!-- Box 3 -->
    <rect x="440" y="0" width="180" height="180" rx="20" fill="white" opacity="0.9"/>
    <rect x="460" y="20" width="140" height="140" rx="10" fill="#5C6AC4" opacity="0.7"/>
  </g>
  
  <!-- Sync Arrows -->
  <g transform="translate(512, 520)">
    <!-- Top Arrow -->
    <path d="M -150 0 Q -150 -80 -70 -80 L 70 -80 Q 150 -80 150 0" stroke="white" stroke-width="40" fill="none" stroke-linecap="round"/>
    <path d="M 130 -20 L 150 0 L 170 -20" stroke="white" stroke-width="40" fill="none" stroke-linecap="round" stroke-linejoin="round"/>
    
    <!-- Bottom Arrow -->
    <path d="M 150 80 Q 150 160 70 160 L -70 160 Q -150 160 -150 80" stroke="white" stroke-width="40" fill="none" stroke-linecap="round"/>
    <path d="M -170 100 L -150 80 L -130 100" stroke="white" stroke-width="40" fill="none" stroke-linecap="round" stroke-linejoin="round"/>
  </g>
  
  <!-- Custom Fields Icon -->
  <g transform="translate(380, 680)">
    <rect x="0" y="0" width="264" height="60" rx="30" fill="white" opacity="0.9"/>
    <circle cx="30" cy="30" r="10" fill="#5C6AC4"/>
    <rect x="60" y="20" width="180" height="20" rx="10" fill="#5C6AC4" opacity="0.3"/>
  </g>
  
  <defs>
    <linearGradient id="gradient" x1="0%" y1="0%" x2="100%" y2="100%">
      <stop offset="0%" style="stop-color:#5C6AC4;stop-opacity:1" />
      <stop offset="100%" style="stop-color:#8B92D8;stop-opacity:1" />
    </linearGradient>
  </defs>
</svg>
